# xmcd
#
# Track frame offsets: 
#        150
#        17590
#        34702
#        48482
#        59850
#        74865
#        90265
#        104505
#        123907
#        137492
#        150362
#        189610
#
# Disc length: 2695 seconds
#
# Revision: 1
# Processed by: cddbd v1.5.1PL0 Copyright (c) Steve Scherf et al.
# Submitted via: ExactAudioCopy v0.95b2
#
DISCID=a30a850c
DTITLE=Climax Chicago Blues Band - Climax Chicago Blues Band
DYEAR=1968
DGENRE=Blues
TTITLE0=Mean Old World
TTITLE1=Take Out Some Insurance
TTITLE2=Going Down This Road
TTITLE3=You've Been Drinking
TTITLE4=Don't Start Me Talking
TTITLE5=Wee Baby Blues
TTITLE6=Twenty Past One
TTITLE7=A Stranger in Your Town
TTITLE8=How Many More Years
TTITLE9=Looking for My Baby
TTITLE10=And Lonely
TTITLE11=The Entertainer
EXTD=
EXTT0=
EXTT1=
EXTT2=
EXTT3=
EXTT4=
EXTT5=
EXTT6=
EXTT7=
EXTT8=
EXTT9=
EXTT10=
EXTT11=
PLAYORDER=
